# xmcd CD database file
#
# Track frame offsets:
#	150
#	38300
#	122700
#	151950
#	192375
#	228825
#	263402
#	301750
#
# Disc length: 4349 seconds
#
# Revision: 0
# Processed by: cddbd v1.5.1PL0 Copyright (c) Steve Scherf et al.
# Submitted via: CDex 1.51
#
DISCID=5110fb08
DTITLE=Christopher Dell - Where We Belong
DYEAR=1992
DGENRE=Jazz
TTITLE0=Next Flight Home
TTITLE1=Suite: Pictures of an Indifferent Mind
TTITLE2=Panama
TTITLE3=Avec Orange
TTITLE4=Where We Belong
TTITLE5=Autumn Again
TTITLE6=Handicapped
TTITLE7=Achtelberger
EXTD=YEAR: 1992
EXTT0=
EXTT1=
EXTT2=
EXTT3=
EXTT4=
EXTT5=
EXTT6=
EXTT7=
PLAYORDER=
